<svg xmlns="http://www.w3.org/2000/svg" xmlns:xlink="http://www.w3.org/1999/xlink" version="1.1" width="256" height="256" viewBox="0 0 256 256" xml:space="preserve">

<defs>
</defs>
<g style="stroke: none; stroke-width: 0; stroke-dasharray: none; stroke-linecap: butt; stroke-linejoin: miter; stroke-miterlimit: 10; fill: none; fill-rule: nonzero; opacity: 1;" transform="translate(1.4065934065934016 1.4065934065934016) scale(2.81 2.81)" >
	<path d="M 73.194 46.5 H 45.168 c -0.829 0 -1.5 -0.671 -1.5 -1.5 s 0.671 -1.5 1.5 -1.5 h 28.026 c 0.828 0 1.5 0.671 1.5 1.5 S 74.022 46.5 73.194 46.5 z" style="stroke: none; stroke-width: 1; stroke-dasharray: none; stroke-linecap: butt; stroke-linejoin: miter; stroke-miterlimit: 10; fill: rgb(44,56,76); fill-rule: nonzero; opacity: 1;" transform=" matrix(1 0 0 1 0 0) " stroke-linecap="round" />
	<circle cx="77.901" cy="45.001" r="6.211" style="stroke: none; stroke-width: 1; stroke-dasharray: none; stroke-linecap: butt; stroke-linejoin: miter; stroke-miterlimit: 10; fill: rgb(242,105,0); fill-rule: nonzero; opacity: 1;" transform="  matrix(1 0 0 1 0 0) "/>
	<path d="M 59.058 31.079 h -13.89 c -0.829 0 -1.5 -0.671 -1.5 -1.5 s 0.671 -1.5 1.5 -1.5 h 13.313 l 7.071 -6.37 c 0.616 -0.553 1.564 -0.505 2.118 0.11 c 0.555 0.615 0.505 1.564 -0.11 2.118 l -7.499 6.755 C 59.786 30.942 59.429 31.079 59.058 31.079 z" style="stroke: none; stroke-width: 1; stroke-dasharray: none; stroke-linecap: butt; stroke-linejoin: miter; stroke-miterlimit: 10; fill: rgb(44,56,76); fill-rule: nonzero; opacity: 1;" transform=" matrix(1 0 0 1 0 0) " stroke-linecap="round" />
	<path d="M 70.057 13.461 c -3.425 0 -6.211 2.786 -6.211 6.21 c 0 3.425 2.786 6.211 6.211 6.211 s 6.211 -2.786 6.211 -6.211 C 76.268 16.247 73.481 13.461 70.057 13.461 z" style="stroke: none; stroke-width: 1; stroke-dasharray: none; stroke-linecap: butt; stroke-linejoin: miter; stroke-miterlimit: 10; fill: rgb(111,161,221); fill-rule: nonzero; opacity: 1;" transform=" matrix(1 0 0 1 0 0) " stroke-linecap="round" />
	<path d="M 66.557 68.677 c -0.358 0 -0.717 -0.127 -1.004 -0.386 l -7.071 -6.37 H 45.168 c -0.829 0 -1.5 -0.672 -1.5 -1.5 s 0.671 -1.5 1.5 -1.5 h 13.89 c 0.371 0 0.729 0.138 1.004 0.386 l 7.499 6.756 c 0.615 0.555 0.665 1.503 0.11 2.118 C 67.375 68.51 66.967 68.677 66.557 68.677 z" style="stroke: none; stroke-width: 1; stroke-dasharray: none; stroke-linecap: butt; stroke-linejoin: miter; stroke-miterlimit: 10; fill: rgb(44,56,76); fill-rule: nonzero; opacity: 1;" transform=" matrix(1 0 0 1 0 0) " stroke-linecap="round" />
	<path d="M 70.057 64.118 c -3.425 0 -6.211 2.786 -6.211 6.21 c 0 3.425 2.786 6.211 6.211 6.211 s 6.211 -2.786 6.211 -6.211 C 76.268 66.904 73.481 64.118 70.057 64.118 z" style="stroke: none; stroke-width: 1; stroke-dasharray: none; stroke-linecap: butt; stroke-linejoin: miter; stroke-miterlimit: 10; fill: rgb(113,226,116); fill-rule: nonzero; opacity: 1;" transform=" matrix(1 0 0 1 0 0) " stroke-linecap="round" />
	<path d="M 55.091 15.777 h -9.924 c -0.829 0 -1.5 -0.671 -1.5 -1.5 s 0.671 -1.5 1.5 -1.5 h 9.924 c 0.828 0 1.5 0.671 1.5 1.5 S 55.919 15.777 55.091 15.777 z" style="stroke: none; stroke-width: 1; stroke-dasharray: none; stroke-linecap: butt; stroke-linejoin: miter; stroke-miterlimit: 10; fill: rgb(44,56,76); fill-rule: nonzero; opacity: 1;" transform=" matrix(1 0 0 1 0 0) " stroke-linecap="round" />
	<path d="M 55.091 77.223 h -9.924 c -0.829 0 -1.5 -0.672 -1.5 -1.5 s 0.671 -1.5 1.5 -1.5 h 9.924 c 0.828 0 1.5 0.672 1.5 1.5 S 55.919 77.223 55.091 77.223 z" style="stroke: none; stroke-width: 1; stroke-dasharray: none; stroke-linecap: butt; stroke-linejoin: miter; stroke-miterlimit: 10; fill: rgb(44,56,76); fill-rule: nonzero; opacity: 1;" transform=" matrix(1 0 0 1 0 0) " stroke-linecap="round" />
	<path d="M 45.168 7.446 C 45.061 7.976 45.001 8.525 45 9.091 C 44.995 4.898 41.916 1.5 38.117 1.5 c -2.911 0 -5.401 1.995 -6.407 4.815 l 0.042 0.009 c -5.446 0.267 -10.051 4.095 -11.942 9.434 c -5.591 1.81 -9.676 7.512 -9.676 14.271 c 0 3.212 0.925 6.183 2.493 8.615 c -3.284 2.712 -5.41 7.041 -5.41 11.918 c 0 4.437 1.762 8.418 4.553 11.143 c -0.583 1.664 -0.907 3.472 -0.907 5.363 c 0 8.214 6.031 14.874 13.472 14.874 c 1.091 0 2.151 -0.147 3.167 -0.417 l 0.187 -1.424 c 0.535 4.734 4.186 8.4 8.619 8.4 c 4.798 0 8.688 -4.292 8.693 -9.589 c 0.001 0.637 0.06 1.259 0.168 1.862 V 7.446 z" style="stroke: none; stroke-width: 1; stroke-dasharray: none; stroke-linecap: butt; stroke-linejoin: miter; stroke-miterlimit: 10; fill: rgb(255,168,190); fill-rule: nonzero; opacity: 1;" transform=" matrix(1 0 0 1 0 0) " stroke-linecap="round" />
	<path d="M 27.936 40.117 c -1.558 0 -3.114 -0.365 -4.58 -1.092 c -0.742 -0.368 -1.045 -1.268 -0.677 -2.01 c 0.367 -0.743 1.267 -1.046 2.01 -0.677 c 1.897 0.94 4.004 1.029 5.932 0.249 c 2.134 -0.862 3.781 -2.661 4.637 -5.063 c 0.278 -0.78 1.135 -1.188 1.917 -0.91 c 0.78 0.278 1.188 1.136 0.91 1.917 c -1.148 3.222 -3.399 5.65 -6.339 6.838 C 30.508 39.868 29.221 40.117 27.936 40.117 z" style="stroke: none; stroke-width: 1; stroke-dasharray: none; stroke-linecap: butt; stroke-linejoin: miter; stroke-miterlimit: 10; fill: rgb(221,126,150); fill-rule: nonzero; opacity: 1;" transform=" matrix(1 0 0 1 0 0) " stroke-linecap="round" />
	<path d="M 21.055 28.238 c -0.489 0 -0.969 -0.239 -1.257 -0.679 c -2.478 -3.788 -2.89 -7.938 -1.224 -12.333 c 0.293 -0.774 1.157 -1.163 1.935 -0.871 c 0.774 0.294 1.165 1.16 0.871 1.935 c -1.344 3.545 -1.048 6.604 0.929 9.627 c 0.454 0.693 0.259 1.623 -0.434 2.077 C 21.622 28.159 21.337 28.238 21.055 28.238 z" style="stroke: none; stroke-width: 1; stroke-dasharray: none; stroke-linecap: butt; stroke-linejoin: miter; stroke-miterlimit: 10; fill: rgb(221,126,150); fill-rule: nonzero; opacity: 1;" transform=" matrix(1 0 0 1 0 0) " stroke-linecap="round" />
	<path d="M 27.046 28.176 c -0.691 0 -1.313 -0.481 -1.465 -1.184 c -0.175 -0.81 0.34 -1.608 1.15 -1.783 c 5.495 -1.185 7.336 -4.636 5.971 -11.189 c -0.169 -0.811 0.352 -1.605 1.162 -1.774 c 0.813 -0.17 1.605 0.352 1.774 1.162 c 2.134 10.243 -3.322 13.666 -8.274 14.734 C 27.257 28.165 27.151 28.176 27.046 28.176 z" style="stroke: none; stroke-width: 1; stroke-dasharray: none; stroke-linecap: butt; stroke-linejoin: miter; stroke-miterlimit: 10; fill: rgb(221,126,150); fill-rule: nonzero; opacity: 1;" transform=" matrix(1 0 0 1 0 0) " stroke-linecap="round" />
	<path d="M 34.111 49.641 c -0.27 0 -0.541 -0.008 -0.812 -0.024 c -0.827 -0.048 -1.458 -0.757 -1.411 -1.584 s 0.771 -1.456 1.584 -1.41 c 2.854 0.155 5.606 -0.786 7.542 -2.612 c 1.735 -1.637 2.653 -3.798 2.653 -6.248 c 0 -0.829 0.671 -1.5 1.5 -1.5 s 1.5 0.671 1.5 1.5 c 0 3.25 -1.276 6.243 -3.594 8.43 C 40.728 48.406 37.498 49.641 34.111 49.641 z" style="stroke: none; stroke-width: 1; stroke-dasharray: none; stroke-linecap: butt; stroke-linejoin: miter; stroke-miterlimit: 10; fill: rgb(221,126,150); fill-rule: nonzero; opacity: 1;" transform=" matrix(1 0 0 1 0 0) " stroke-linecap="round" />
	<path d="M 25.867 66.226 c -0.145 0 -0.292 -0.021 -0.438 -0.065 c -0.792 -0.241 -1.239 -1.079 -0.998 -1.872 c 1.817 -5.963 0.054 -9.475 -5.716 -11.385 c -0.787 -0.26 -1.213 -1.108 -0.953 -1.896 c 0.261 -0.786 1.111 -1.211 1.895 -0.952 c 7.278 2.409 9.921 7.633 7.644 15.107 C 27.104 65.81 26.509 66.226 25.867 66.226 z" style="stroke: none; stroke-width: 1; stroke-dasharray: none; stroke-linecap: butt; stroke-linejoin: miter; stroke-miterlimit: 10; fill: rgb(221,126,150); fill-rule: nonzero; opacity: 1;" transform=" matrix(1 0 0 1 0 0) " stroke-linecap="round" />
	<path d="M 24.634 56.28 c -0.536 0 -1.054 -0.287 -1.324 -0.793 c -1.721 -3.218 -1.812 -6.489 -0.27 -9.723 c 0.357 -0.748 1.254 -1.064 2 -0.708 c 0.748 0.357 1.065 1.252 0.708 2 c -1.125 2.358 -1.057 4.653 0.207 7.018 c 0.391 0.73 0.115 1.64 -0.615 2.03 C 25.115 56.224 24.873 56.28 24.634 56.28 z" style="stroke: none; stroke-width: 1; stroke-dasharray: none; stroke-linecap: butt; stroke-linejoin: miter; stroke-miterlimit: 10; fill: rgb(221,126,150); fill-rule: nonzero; opacity: 1;" transform=" matrix(1 0 0 1 0 0) " stroke-linecap="round" />
	<path d="M 40.653 76.171 c -0.246 0 -0.495 -0.061 -0.725 -0.188 c -6.762 -3.741 -8.537 -9.375 -5.133 -16.293 c 0.366 -0.743 1.267 -1.05 2.008 -0.684 c 0.744 0.365 1.049 1.265 0.684 2.008 c -2.688 5.465 -1.451 9.387 3.894 12.344 c 0.725 0.401 0.987 1.313 0.586 2.039 C 41.693 75.892 41.182 76.171 40.653 76.171 z" style="stroke: none; stroke-width: 1; stroke-dasharray: none; stroke-linecap: butt; stroke-linejoin: miter; stroke-miterlimit: 10; fill: rgb(221,126,150); fill-rule: nonzero; opacity: 1;" transform=" matrix(1 0 0 1 0 0) " stroke-linecap="round" />
	<path d="M 34.731 80.174 c -0.297 0 -0.597 -0.088 -0.858 -0.271 c -0.679 -0.476 -0.844 -1.411 -0.369 -2.09 c 1.47 -2.101 1.758 -4.373 0.881 -6.945 c -0.267 -0.784 0.152 -1.637 0.936 -1.904 c 0.786 -0.268 1.637 0.153 1.904 0.936 c 1.191 3.493 0.766 6.734 -1.263 9.635 C 35.67 79.951 35.205 80.174 34.731 80.174 z" style="stroke: none; stroke-width: 1; stroke-dasharray: none; stroke-linecap: butt; stroke-linejoin: miter; stroke-miterlimit: 10; fill: rgb(221,126,150); fill-rule: nonzero; opacity: 1;" transform=" matrix(1 0 0 1 0 0) " stroke-linecap="round" />
	<path d="M 16.354 65.063 c -1.559 0 -3.407 -0.538 -5.386 -2.213 c -0.632 -0.535 -0.711 -1.481 -0.176 -2.113 s 1.48 -0.713 2.114 -0.176 c 2.263 1.916 3.88 1.615 4.9 1.223 c 0.774 -0.296 1.641 0.089 1.938 0.862 c 0.297 0.773 -0.088 1.641 -0.862 1.938 C 18.178 64.854 17.322 65.063 16.354 65.063 z" style="stroke: none; stroke-width: 1; stroke-dasharray: none; stroke-linecap: butt; stroke-linejoin: miter; stroke-miterlimit: 10; fill: rgb(221,126,150); fill-rule: nonzero; opacity: 1;" transform=" matrix(1 0 0 1 0 0) " stroke-linecap="round" />
	<path d="M 12.795 40.144 c -0.46 0 -0.915 -0.211 -1.208 -0.61 c -0.491 -0.667 -0.349 -1.606 0.317 -2.098 c 1.28 -0.943 2.591 -1.615 3.896 -1.995 c 0.797 -0.233 1.628 0.225 1.86 1.02 c 0.232 0.795 -0.225 1.628 -1.02 1.86 c -0.966 0.282 -1.96 0.796 -2.956 1.53 C 13.416 40.048 13.104 40.144 12.795 40.144 z" style="stroke: none; stroke-width: 1; stroke-dasharray: none; stroke-linecap: butt; stroke-linejoin: miter; stroke-miterlimit: 10; fill: rgb(221,126,150); fill-rule: nonzero; opacity: 1;" transform=" matrix(1 0 0 1 0 0) " stroke-linecap="round" />
	<path d="M 37.552 55.395 c -0.639 0 -1.23 -0.41 -1.431 -1.052 c -1.089 -3.482 0.211 -7.341 3.026 -8.974 c 0.716 -0.416 1.634 -0.172 2.05 0.544 c 0.416 0.717 0.172 1.635 -0.544 2.05 c -1.58 0.917 -2.328 3.377 -1.669 5.483 c 0.247 0.791 -0.193 1.633 -0.984 1.88 C 37.851 55.373 37.7 55.395 37.552 55.395 z" style="stroke: none; stroke-width: 1; stroke-dasharray: none; stroke-linecap: butt; stroke-linejoin: miter; stroke-miterlimit: 10; fill: rgb(221,126,150); fill-rule: nonzero; opacity: 1;" transform=" matrix(1 0 0 1 0 0) " stroke-linecap="round" />
	<path d="M 34.288 21.987 c -0.26 0 -0.523 -0.067 -0.763 -0.209 c -0.713 -0.422 -0.949 -1.342 -0.527 -2.055 c 0.991 -1.674 2.654 -3.926 5.641 -4.146 c 0.828 -0.059 1.545 0.56 1.606 1.386 c 0.061 0.826 -0.56 1.545 -1.386 1.606 c -1.224 0.09 -2.235 0.917 -3.28 2.683 C 35.3 21.725 34.8 21.987 34.288 21.987 z" style="stroke: none; stroke-width: 1; stroke-dasharray: none; stroke-linecap: butt; stroke-linejoin: miter; stroke-miterlimit: 10; fill: rgb(221,126,150); fill-rule: nonzero; opacity: 1;" transform=" matrix(1 0 0 1 0 0) " stroke-linecap="round" />
	<path d="M 45.168 80.401 c -0.829 0 -1.5 -0.672 -1.5 -1.5 L 43.667 9.1 c 0 -0.829 0.671 -1.5 1.5 -1.5 s 1.5 0.671 1.5 1.5 l 0.001 69.801 C 46.668 79.729 45.997 80.401 45.168 80.401 z" style="stroke: none; stroke-width: 1; stroke-dasharray: none; stroke-linecap: butt; stroke-linejoin: miter; stroke-miterlimit: 10; fill: rgb(221,126,150); fill-rule: nonzero; opacity: 1;" transform=" matrix(1 0 0 1 0 0) " stroke-linecap="round" />
	<path d="M 24.502 83.441 c -8.255 0 -14.972 -7.345 -14.972 -16.373 c 0 -1.696 0.237 -3.363 0.705 -4.968 c -2.776 -3.059 -4.352 -7.21 -4.352 -11.539 c 0 -4.728 1.805 -9.107 4.994 -12.212 c -1.362 -2.516 -2.077 -5.367 -2.077 -8.32 c 0 -6.933 4.085 -13.175 10.019 -15.452 c 2.392 -5.965 7.7 -9.779 13.705 -9.779 c 1.864 0 3.705 0.384 5.469 1.142 c 0.761 0.327 1.113 1.209 0.787 1.97 c -0.327 0.762 -1.21 1.113 -1.97 0.787 c -1.389 -0.597 -2.83 -0.899 -4.285 -0.899 c -4.942 0 -9.313 3.321 -11.133 8.461 l -0.248 0.698 l -0.705 0.228 c -5.086 1.646 -8.638 6.928 -8.638 12.844 c 0 2.817 0.779 5.515 2.254 7.801 l 0.723 1.121 L 13.749 39.8 c -3.046 2.516 -4.865 6.539 -4.865 10.761 c 0 3.855 1.495 7.525 4.101 10.07 l 0.684 0.668 l -0.316 0.901 c -0.545 1.557 -0.822 3.193 -0.822 4.867 c 0 7.374 5.371 13.373 11.972 13.373 c 0.932 0 1.868 -0.123 2.782 -0.366 c 0.795 -0.22 1.622 0.262 1.835 1.063 c 0.213 0.801 -0.263 1.622 -1.064 1.835 C 26.89 83.284 25.695 83.441 24.502 83.441 z" style="stroke: none; stroke-width: 1; stroke-dasharray: none; stroke-linecap: butt; stroke-linejoin: miter; stroke-miterlimit: 10; fill: rgb(221,126,150); fill-rule: nonzero; opacity: 1;" transform=" matrix(1 0 0 1 0 0) " stroke-linecap="round" />
	<path d="M 45.168 10.6 c -0.829 0 -1.5 -0.671 -1.5 -1.5 c 0 -3.364 -2.415 -6.1 -5.383 -6.1 c -2.206 0 -4.167 1.5 -4.995 3.82 c -0.278 0.78 -1.135 1.186 -1.917 0.908 c -0.78 -0.278 -1.187 -1.137 -0.908 -1.917 C 31.725 2.281 34.794 0 38.285 0 c 4.623 0 8.383 4.083 8.383 9.1 C 46.668 9.929 45.997 10.6 45.168 10.6 z" style="stroke: none; stroke-width: 1; stroke-dasharray: none; stroke-linecap: butt; stroke-linejoin: miter; stroke-miterlimit: 10; fill: rgb(221,126,150); fill-rule: nonzero; opacity: 1;" transform=" matrix(1 0 0 1 0 0) " stroke-linecap="round" />
	<path d="M 36.475 90 c -5.621 0 -10.193 -4.979 -10.193 -11.099 c 0 -0.828 0.671 -1.5 1.5 -1.5 s 1.5 0.672 1.5 1.5 c 0 4.466 3.227 8.099 7.193 8.099 s 7.193 -3.633 7.193 -8.099 c 0 -0.828 0.671 -1.5 1.5 -1.5 s 1.5 0.672 1.5 1.5 C 46.668 85.021 42.095 90 36.475 90 z" style="stroke: none; stroke-width: 1; stroke-dasharray: none; stroke-linecap: butt; stroke-linejoin: miter; stroke-miterlimit: 10; fill: rgb(221,126,150); fill-rule: nonzero; opacity: 1;" transform=" matrix(1 0 0 1 0 0) " stroke-linecap="round" />
	<path d="M 45.167 80.401 L 45.167 80.401 c -0.829 0 -1.5 -0.672 -1.5 -1.5 L 43.668 9.1 c 0 -0.829 0.672 -1.5 1.5 -1.5 l 0 0 c 0.829 0 1.5 0.671 1.5 1.5 l -0.001 69.801 C 46.667 79.729 45.995 80.401 45.167 80.401 z" style="stroke: none; stroke-width: 1; stroke-dasharray: none; stroke-linecap: butt; stroke-linejoin: miter; stroke-miterlimit: 10; fill: rgb(221,126,150); fill-rule: nonzero; opacity: 1;" transform=" matrix(1 0 0 1 0 0) " stroke-linecap="round" />
</g>
</svg>